<mxfile host="app.diagrams.net" modified="2023-02-09T03:41:59.597Z" agent="5.0 (Windows NT 10.0; Win64; x64) AppleWebKit/537.36 (KHTML, like Gecko) Chrome/109.0.0.0 Safari/537.36" etag="tXm-A8NiXppdmdCHumbe" version="20.8.18" type="github">
  <diagram name="第 1 页" id="z47-h1pN4GUKJWPU5KRY">
    <mxGraphModel dx="1500" dy="1942" grid="1" gridSize="10" guides="1" tooltips="1" connect="1" arrows="1" fold="1" page="1" pageScale="1" pageWidth="827" pageHeight="1169" math="0" shadow="0">
      <root>
        <mxCell id="0" />
        <mxCell id="1" parent="0" />
        <mxCell id="0KoFqksm21B9TkFE61yz-12" style="edgeStyle=orthogonalEdgeStyle;rounded=0;orthogonalLoop=1;jettySize=auto;html=1;exitX=0.5;exitY=1;exitDx=0;exitDy=0;entryX=0.642;entryY=-0.047;entryDx=0;entryDy=0;entryPerimeter=0;" edge="1" parent="1" source="EbDNwAQcWXfo5UuwEE8I-41" target="0KoFqksm21B9TkFE61yz-1">
          <mxGeometry relative="1" as="geometry" />
        </mxCell>
        <mxCell id="0KoFqksm21B9TkFE61yz-13" style="edgeStyle=orthogonalEdgeStyle;rounded=0;orthogonalLoop=1;jettySize=auto;html=1;exitX=0.5;exitY=1;exitDx=0;exitDy=0;entryX=0.688;entryY=-0.02;entryDx=0;entryDy=0;entryPerimeter=0;" edge="1" parent="1" source="EbDNwAQcWXfo5UuwEE8I-41" target="0KoFqksm21B9TkFE61yz-5">
          <mxGeometry relative="1" as="geometry" />
        </mxCell>
        <mxCell id="0KoFqksm21B9TkFE61yz-14" style="edgeStyle=orthogonalEdgeStyle;rounded=0;orthogonalLoop=1;jettySize=auto;html=1;exitX=0.5;exitY=1;exitDx=0;exitDy=0;entryX=0.667;entryY=0.06;entryDx=0;entryDy=0;entryPerimeter=0;" edge="1" parent="1" source="EbDNwAQcWXfo5UuwEE8I-41" target="0KoFqksm21B9TkFE61yz-4">
          <mxGeometry relative="1" as="geometry" />
        </mxCell>
        <mxCell id="0KoFqksm21B9TkFE61yz-15" style="edgeStyle=orthogonalEdgeStyle;rounded=0;orthogonalLoop=1;jettySize=auto;html=1;exitX=0.5;exitY=1;exitDx=0;exitDy=0;" edge="1" parent="1" source="EbDNwAQcWXfo5UuwEE8I-41" target="0KoFqksm21B9TkFE61yz-3">
          <mxGeometry relative="1" as="geometry" />
        </mxCell>
        <mxCell id="0KoFqksm21B9TkFE61yz-16" style="edgeStyle=orthogonalEdgeStyle;rounded=0;orthogonalLoop=1;jettySize=auto;html=1;exitX=0.5;exitY=1;exitDx=0;exitDy=0;" edge="1" parent="1" source="EbDNwAQcWXfo5UuwEE8I-41" target="0KoFqksm21B9TkFE61yz-2">
          <mxGeometry relative="1" as="geometry" />
        </mxCell>
        <mxCell id="0KoFqksm21B9TkFE61yz-17" style="edgeStyle=orthogonalEdgeStyle;rounded=0;orthogonalLoop=1;jettySize=auto;html=1;exitX=0.5;exitY=1;exitDx=0;exitDy=0;entryX=0.5;entryY=0;entryDx=0;entryDy=0;" edge="1" parent="1" source="EbDNwAQcWXfo5UuwEE8I-41" target="0KoFqksm21B9TkFE61yz-6">
          <mxGeometry relative="1" as="geometry" />
        </mxCell>
        <mxCell id="0KoFqksm21B9TkFE61yz-18" style="edgeStyle=orthogonalEdgeStyle;rounded=0;orthogonalLoop=1;jettySize=auto;html=1;exitX=0.5;exitY=1;exitDx=0;exitDy=0;" edge="1" parent="1" source="EbDNwAQcWXfo5UuwEE8I-41" target="0KoFqksm21B9TkFE61yz-8">
          <mxGeometry relative="1" as="geometry" />
        </mxCell>
        <mxCell id="0KoFqksm21B9TkFE61yz-19" style="edgeStyle=orthogonalEdgeStyle;rounded=0;orthogonalLoop=1;jettySize=auto;html=1;exitX=0.5;exitY=1;exitDx=0;exitDy=0;entryX=0.5;entryY=0;entryDx=0;entryDy=0;" edge="1" parent="1" source="EbDNwAQcWXfo5UuwEE8I-41" target="0KoFqksm21B9TkFE61yz-7">
          <mxGeometry relative="1" as="geometry" />
        </mxCell>
        <mxCell id="0KoFqksm21B9TkFE61yz-20" style="edgeStyle=orthogonalEdgeStyle;rounded=0;orthogonalLoop=1;jettySize=auto;html=1;exitX=0.5;exitY=1;exitDx=0;exitDy=0;entryX=0.671;entryY=0.05;entryDx=0;entryDy=0;entryPerimeter=0;" edge="1" parent="1" source="EbDNwAQcWXfo5UuwEE8I-41" target="0KoFqksm21B9TkFE61yz-9">
          <mxGeometry relative="1" as="geometry" />
        </mxCell>
        <mxCell id="0KoFqksm21B9TkFE61yz-21" style="edgeStyle=orthogonalEdgeStyle;rounded=0;orthogonalLoop=1;jettySize=auto;html=1;exitX=0.5;exitY=1;exitDx=0;exitDy=0;entryX=0.5;entryY=0;entryDx=0;entryDy=0;" edge="1" parent="1" source="EbDNwAQcWXfo5UuwEE8I-41" target="0KoFqksm21B9TkFE61yz-11">
          <mxGeometry relative="1" as="geometry" />
        </mxCell>
        <mxCell id="0KoFqksm21B9TkFE61yz-52" style="edgeStyle=orthogonalEdgeStyle;rounded=0;orthogonalLoop=1;jettySize=auto;html=1;exitX=0.5;exitY=0;exitDx=0;exitDy=0;entryX=0.5;entryY=1;entryDx=0;entryDy=0;" edge="1" parent="1" source="EbDNwAQcWXfo5UuwEE8I-41" target="0KoFqksm21B9TkFE61yz-51">
          <mxGeometry relative="1" as="geometry" />
        </mxCell>
        <mxCell id="0KoFqksm21B9TkFE61yz-71" value="1" style="edgeLabel;html=1;align=center;verticalAlign=middle;resizable=0;points=[];" vertex="1" connectable="0" parent="0KoFqksm21B9TkFE61yz-52">
          <mxGeometry x="-0.3754" y="3" relative="1" as="geometry">
            <mxPoint as="offset" />
          </mxGeometry>
        </mxCell>
        <mxCell id="0KoFqksm21B9TkFE61yz-88" style="edgeStyle=orthogonalEdgeStyle;rounded=0;orthogonalLoop=1;jettySize=auto;html=1;exitX=1;exitY=0.5;exitDx=0;exitDy=0;entryX=0.5;entryY=0;entryDx=0;entryDy=0;" edge="1" parent="1" source="EbDNwAQcWXfo5UuwEE8I-41" target="0KoFqksm21B9TkFE61yz-73">
          <mxGeometry relative="1" as="geometry">
            <Array as="points">
              <mxPoint x="1420" y="50" />
              <mxPoint x="1420" y="-280" />
              <mxPoint x="1740" y="-280" />
            </Array>
          </mxGeometry>
        </mxCell>
        <mxCell id="0KoFqksm21B9TkFE61yz-90" value="1" style="edgeLabel;html=1;align=center;verticalAlign=middle;resizable=0;points=[];" vertex="1" connectable="0" parent="0KoFqksm21B9TkFE61yz-88">
          <mxGeometry x="-0.6951" y="-2" relative="1" as="geometry">
            <mxPoint as="offset" />
          </mxGeometry>
        </mxCell>
        <mxCell id="0KoFqksm21B9TkFE61yz-91" value="n" style="edgeLabel;html=1;align=center;verticalAlign=middle;resizable=0;points=[];" vertex="1" connectable="0" parent="0KoFqksm21B9TkFE61yz-88">
          <mxGeometry x="0.5242" y="2" relative="1" as="geometry">
            <mxPoint as="offset" />
          </mxGeometry>
        </mxCell>
        <mxCell id="EbDNwAQcWXfo5UuwEE8I-41" value="试卷" style="rounded=0;whiteSpace=wrap;html=1;fillColor=#d5e8d4;strokeColor=#82b366;" parent="1" vertex="1">
          <mxGeometry x="1260" y="20" width="120" height="60" as="geometry" />
        </mxCell>
        <mxCell id="0KoFqksm21B9TkFE61yz-1" value="试卷名称" style="ellipse;whiteSpace=wrap;html=1;fillColor=#fff2cc;strokeColor=#d6b656;" vertex="1" parent="1">
          <mxGeometry x="840" y="140" width="80" height="30" as="geometry" />
        </mxCell>
        <mxCell id="0KoFqksm21B9TkFE61yz-2" value="分数" style="ellipse;whiteSpace=wrap;html=1;fillColor=#fff2cc;strokeColor=#d6b656;" vertex="1" parent="1">
          <mxGeometry x="1230" y="140" width="80" height="30" as="geometry" />
        </mxCell>
        <mxCell id="0KoFqksm21B9TkFE61yz-3" value="年级" style="ellipse;whiteSpace=wrap;html=1;fillColor=#fff2cc;strokeColor=#d6b656;" vertex="1" parent="1">
          <mxGeometry x="1130" y="140" width="80" height="30" as="geometry" />
        </mxCell>
        <mxCell id="0KoFqksm21B9TkFE61yz-4" value="试卷类型" style="ellipse;whiteSpace=wrap;html=1;fillColor=#fff2cc;strokeColor=#d6b656;" vertex="1" parent="1">
          <mxGeometry x="1030" y="140" width="80" height="30" as="geometry" />
        </mxCell>
        <mxCell id="0KoFqksm21B9TkFE61yz-5" value="学科id" style="ellipse;whiteSpace=wrap;html=1;fillColor=#fff2cc;strokeColor=#d6b656;" vertex="1" parent="1">
          <mxGeometry x="930" y="140" width="80" height="30" as="geometry" />
        </mxCell>
        <mxCell id="0KoFqksm21B9TkFE61yz-6" value="题目数量" style="ellipse;whiteSpace=wrap;html=1;fillColor=#fff2cc;strokeColor=#d6b656;" vertex="1" parent="1">
          <mxGeometry x="1320" y="135" width="70" height="40" as="geometry" />
        </mxCell>
        <mxCell id="0KoFqksm21B9TkFE61yz-7" value="限制开始时间" style="ellipse;whiteSpace=wrap;html=1;fillColor=#fff2cc;strokeColor=#d6b656;" vertex="1" parent="1">
          <mxGeometry x="1490" y="135" width="70" height="40" as="geometry" />
        </mxCell>
        <mxCell id="0KoFqksm21B9TkFE61yz-8" value="建议时间" style="ellipse;whiteSpace=wrap;html=1;fillColor=#fff2cc;strokeColor=#d6b656;" vertex="1" parent="1">
          <mxGeometry x="1410" y="135" width="70" height="40" as="geometry" />
        </mxCell>
        <mxCell id="0KoFqksm21B9TkFE61yz-9" value="限制结束时间" style="ellipse;whiteSpace=wrap;html=1;fillColor=#fff2cc;strokeColor=#d6b656;" vertex="1" parent="1">
          <mxGeometry x="1570" y="135" width="70" height="40" as="geometry" />
        </mxCell>
        <mxCell id="0KoFqksm21B9TkFE61yz-10" value="" style="ellipse;whiteSpace=wrap;html=1;" vertex="1" parent="1">
          <mxGeometry x="1370" y="180" width="70" as="geometry" />
        </mxCell>
        <mxCell id="0KoFqksm21B9TkFE61yz-11" value="任务id" style="ellipse;whiteSpace=wrap;html=1;fillColor=#fff2cc;strokeColor=#d6b656;" vertex="1" parent="1">
          <mxGeometry x="1660" y="135" width="70" height="40" as="geometry" />
        </mxCell>
        <mxCell id="0KoFqksm21B9TkFE61yz-40" style="edgeStyle=orthogonalEdgeStyle;rounded=0;orthogonalLoop=1;jettySize=auto;html=1;exitX=0.5;exitY=0;exitDx=0;exitDy=0;entryX=0.5;entryY=1;entryDx=0;entryDy=0;" edge="1" parent="1" source="0KoFqksm21B9TkFE61yz-22" target="0KoFqksm21B9TkFE61yz-23">
          <mxGeometry relative="1" as="geometry" />
        </mxCell>
        <mxCell id="0KoFqksm21B9TkFE61yz-41" style="edgeStyle=orthogonalEdgeStyle;rounded=0;orthogonalLoop=1;jettySize=auto;html=1;exitX=0.5;exitY=0;exitDx=0;exitDy=0;entryX=0.5;entryY=1;entryDx=0;entryDy=0;" edge="1" parent="1" source="0KoFqksm21B9TkFE61yz-22" target="0KoFqksm21B9TkFE61yz-26">
          <mxGeometry relative="1" as="geometry" />
        </mxCell>
        <mxCell id="0KoFqksm21B9TkFE61yz-42" style="edgeStyle=orthogonalEdgeStyle;rounded=0;orthogonalLoop=1;jettySize=auto;html=1;exitX=0.5;exitY=0;exitDx=0;exitDy=0;entryX=0.5;entryY=1;entryDx=0;entryDy=0;" edge="1" parent="1" source="0KoFqksm21B9TkFE61yz-22" target="0KoFqksm21B9TkFE61yz-25">
          <mxGeometry relative="1" as="geometry" />
        </mxCell>
        <mxCell id="0KoFqksm21B9TkFE61yz-43" style="edgeStyle=orthogonalEdgeStyle;rounded=0;orthogonalLoop=1;jettySize=auto;html=1;exitX=0.5;exitY=0;exitDx=0;exitDy=0;entryX=0.5;entryY=1;entryDx=0;entryDy=0;" edge="1" parent="1" source="0KoFqksm21B9TkFE61yz-22" target="0KoFqksm21B9TkFE61yz-27">
          <mxGeometry relative="1" as="geometry" />
        </mxCell>
        <mxCell id="0KoFqksm21B9TkFE61yz-44" style="edgeStyle=orthogonalEdgeStyle;rounded=0;orthogonalLoop=1;jettySize=auto;html=1;exitX=0.5;exitY=0;exitDx=0;exitDy=0;entryX=0.5;entryY=1;entryDx=0;entryDy=0;" edge="1" parent="1" source="0KoFqksm21B9TkFE61yz-22" target="0KoFqksm21B9TkFE61yz-29">
          <mxGeometry relative="1" as="geometry" />
        </mxCell>
        <mxCell id="0KoFqksm21B9TkFE61yz-45" style="edgeStyle=orthogonalEdgeStyle;rounded=0;orthogonalLoop=1;jettySize=auto;html=1;exitX=0.5;exitY=0;exitDx=0;exitDy=0;entryX=0.5;entryY=1;entryDx=0;entryDy=0;" edge="1" parent="1" source="0KoFqksm21B9TkFE61yz-22" target="0KoFqksm21B9TkFE61yz-28">
          <mxGeometry relative="1" as="geometry" />
        </mxCell>
        <mxCell id="0KoFqksm21B9TkFE61yz-46" style="edgeStyle=orthogonalEdgeStyle;rounded=0;orthogonalLoop=1;jettySize=auto;html=1;exitX=0.5;exitY=0;exitDx=0;exitDy=0;entryX=0.5;entryY=1;entryDx=0;entryDy=0;" edge="1" parent="1" source="0KoFqksm21B9TkFE61yz-22" target="0KoFqksm21B9TkFE61yz-30">
          <mxGeometry relative="1" as="geometry" />
        </mxCell>
        <mxCell id="0KoFqksm21B9TkFE61yz-47" style="edgeStyle=orthogonalEdgeStyle;rounded=0;orthogonalLoop=1;jettySize=auto;html=1;exitX=0.5;exitY=0;exitDx=0;exitDy=0;entryX=0.5;entryY=1;entryDx=0;entryDy=0;" edge="1" parent="1" source="0KoFqksm21B9TkFE61yz-22" target="0KoFqksm21B9TkFE61yz-31">
          <mxGeometry relative="1" as="geometry" />
        </mxCell>
        <mxCell id="0KoFqksm21B9TkFE61yz-49" style="edgeStyle=orthogonalEdgeStyle;rounded=0;orthogonalLoop=1;jettySize=auto;html=1;exitX=0.5;exitY=0;exitDx=0;exitDy=0;" edge="1" parent="1" source="0KoFqksm21B9TkFE61yz-22" target="0KoFqksm21B9TkFE61yz-35">
          <mxGeometry relative="1" as="geometry" />
        </mxCell>
        <mxCell id="0KoFqksm21B9TkFE61yz-50" value="1" style="edgeStyle=orthogonalEdgeStyle;rounded=0;orthogonalLoop=1;jettySize=auto;html=1;exitX=0.5;exitY=1;exitDx=0;exitDy=0;entryX=0.5;entryY=0;entryDx=0;entryDy=0;" edge="1" parent="1" source="0KoFqksm21B9TkFE61yz-22" target="0KoFqksm21B9TkFE61yz-51">
          <mxGeometry relative="1" as="geometry">
            <mxPoint x="1300" y="-170" as="targetPoint" />
          </mxGeometry>
        </mxCell>
        <mxCell id="0KoFqksm21B9TkFE61yz-22" value="学生答卷" style="rounded=0;whiteSpace=wrap;html=1;fillColor=#d5e8d4;strokeColor=#82b366;" vertex="1" parent="1">
          <mxGeometry x="1220" y="-300" width="120" height="60" as="geometry" />
        </mxCell>
        <mxCell id="0KoFqksm21B9TkFE61yz-23" value="试卷名称" style="ellipse;whiteSpace=wrap;html=1;fillColor=#f8cecc;strokeColor=#b85450;" vertex="1" parent="1">
          <mxGeometry x="900" y="-390" width="70" height="40" as="geometry" />
        </mxCell>
        <mxCell id="0KoFqksm21B9TkFE61yz-25" value="学科id" style="ellipse;whiteSpace=wrap;html=1;fillColor=#ffe6cc;strokeColor=#d79b00;" vertex="1" parent="1">
          <mxGeometry x="1080" y="-390" width="70" height="40" as="geometry" />
        </mxCell>
        <mxCell id="0KoFqksm21B9TkFE61yz-26" value="试卷类型" style="ellipse;whiteSpace=wrap;html=1;fillColor=#fff2cc;strokeColor=#d6b656;" vertex="1" parent="1">
          <mxGeometry x="990" y="-390" width="70" height="40" as="geometry" />
        </mxCell>
        <mxCell id="0KoFqksm21B9TkFE61yz-27" value="系统分数" style="ellipse;whiteSpace=wrap;html=1;fillColor=#fff2cc;strokeColor=#d6b656;" vertex="1" parent="1">
          <mxGeometry x="1180" y="-390" width="70" height="40" as="geometry" />
        </mxCell>
        <mxCell id="0KoFqksm21B9TkFE61yz-28" value="试卷分数" style="ellipse;whiteSpace=wrap;html=1;fillColor=#fff2cc;strokeColor=#d6b656;" vertex="1" parent="1">
          <mxGeometry x="1390" y="-390" width="70" height="40" as="geometry" />
        </mxCell>
        <mxCell id="0KoFqksm21B9TkFE61yz-29" value="学生分数" style="ellipse;whiteSpace=wrap;html=1;fillColor=#fff2cc;strokeColor=#d6b656;" vertex="1" parent="1">
          <mxGeometry x="1300" y="-390" width="70" height="40" as="geometry" />
        </mxCell>
        <mxCell id="0KoFqksm21B9TkFE61yz-30" value="题目正确答案" style="ellipse;whiteSpace=wrap;html=1;fillColor=#fff2cc;strokeColor=#d6b656;" vertex="1" parent="1">
          <mxGeometry x="1480" y="-390" width="70" height="40" as="geometry" />
        </mxCell>
        <mxCell id="0KoFqksm21B9TkFE61yz-31" value="题目数量" style="ellipse;whiteSpace=wrap;html=1;fillColor=#fff2cc;strokeColor=#d6b656;" vertex="1" parent="1">
          <mxGeometry x="1570" y="-390" width="70" height="40" as="geometry" />
        </mxCell>
        <mxCell id="0KoFqksm21B9TkFE61yz-35" value="做题时间" style="ellipse;whiteSpace=wrap;html=1;fillColor=#fff2cc;strokeColor=#d6b656;" vertex="1" parent="1">
          <mxGeometry x="1654" y="-390" width="70" height="40" as="geometry" />
        </mxCell>
        <mxCell id="0KoFqksm21B9TkFE61yz-51" value="作答" style="rhombus;whiteSpace=wrap;html=1;fillColor=#e1d5e7;strokeColor=#9673a6;" vertex="1" parent="1">
          <mxGeometry x="1250" y="-160" width="80" height="80" as="geometry" />
        </mxCell>
        <mxCell id="0KoFqksm21B9TkFE61yz-60" value="学科名字" style="ellipse;whiteSpace=wrap;html=1;fillColor=#d5e8d4;strokeColor=#82b366;" vertex="1" parent="1">
          <mxGeometry x="827" y="-110" width="70" height="40" as="geometry" />
        </mxCell>
        <mxCell id="0KoFqksm21B9TkFE61yz-61" style="edgeStyle=orthogonalEdgeStyle;rounded=0;orthogonalLoop=1;jettySize=auto;html=1;exitX=0.5;exitY=1;exitDx=0;exitDy=0;entryX=0.363;entryY=0.03;entryDx=0;entryDy=0;entryPerimeter=0;" edge="1" parent="1" source="0KoFqksm21B9TkFE61yz-64" target="0KoFqksm21B9TkFE61yz-60">
          <mxGeometry relative="1" as="geometry" />
        </mxCell>
        <mxCell id="0KoFqksm21B9TkFE61yz-62" style="edgeStyle=orthogonalEdgeStyle;rounded=0;orthogonalLoop=1;jettySize=auto;html=1;exitX=0.5;exitY=1;exitDx=0;exitDy=0;" edge="1" parent="1" source="0KoFqksm21B9TkFE61yz-64" target="0KoFqksm21B9TkFE61yz-66">
          <mxGeometry relative="1" as="geometry" />
        </mxCell>
        <mxCell id="0KoFqksm21B9TkFE61yz-63" style="edgeStyle=orthogonalEdgeStyle;rounded=0;orthogonalLoop=1;jettySize=auto;html=1;exitX=0.5;exitY=1;exitDx=0;exitDy=0;" edge="1" parent="1" source="0KoFqksm21B9TkFE61yz-64" target="0KoFqksm21B9TkFE61yz-65">
          <mxGeometry relative="1" as="geometry" />
        </mxCell>
        <mxCell id="0KoFqksm21B9TkFE61yz-69" style="edgeStyle=orthogonalEdgeStyle;rounded=0;orthogonalLoop=1;jettySize=auto;html=1;exitX=0.5;exitY=0;exitDx=0;exitDy=0;" edge="1" parent="1" source="0KoFqksm21B9TkFE61yz-64" target="0KoFqksm21B9TkFE61yz-68">
          <mxGeometry relative="1" as="geometry" />
        </mxCell>
        <mxCell id="0KoFqksm21B9TkFE61yz-72" value="1" style="edgeLabel;html=1;align=center;verticalAlign=middle;resizable=0;points=[];" vertex="1" connectable="0" parent="0KoFqksm21B9TkFE61yz-69">
          <mxGeometry x="-0.4239" y="-1" relative="1" as="geometry">
            <mxPoint as="offset" />
          </mxGeometry>
        </mxCell>
        <mxCell id="0KoFqksm21B9TkFE61yz-92" style="edgeStyle=orthogonalEdgeStyle;rounded=0;orthogonalLoop=1;jettySize=auto;html=1;exitX=0.5;exitY=0;exitDx=0;exitDy=0;entryX=0.5;entryY=0;entryDx=0;entryDy=0;" edge="1" parent="1" source="0KoFqksm21B9TkFE61yz-64" target="0KoFqksm21B9TkFE61yz-73">
          <mxGeometry relative="1" as="geometry">
            <Array as="points">
              <mxPoint x="870" y="-240" />
              <mxPoint x="870" y="-510" />
              <mxPoint x="1740" y="-510" />
            </Array>
          </mxGeometry>
        </mxCell>
        <mxCell id="0KoFqksm21B9TkFE61yz-94" value="1" style="edgeLabel;html=1;align=center;verticalAlign=middle;resizable=0;points=[];" vertex="1" connectable="0" parent="0KoFqksm21B9TkFE61yz-92">
          <mxGeometry x="-0.2198" y="-1" relative="1" as="geometry">
            <mxPoint as="offset" />
          </mxGeometry>
        </mxCell>
        <mxCell id="0KoFqksm21B9TkFE61yz-95" value="n" style="edgeLabel;html=1;align=center;verticalAlign=middle;resizable=0;points=[];" vertex="1" connectable="0" parent="0KoFqksm21B9TkFE61yz-92">
          <mxGeometry x="0.5282" y="-4" relative="1" as="geometry">
            <mxPoint as="offset" />
          </mxGeometry>
        </mxCell>
        <mxCell id="0KoFqksm21B9TkFE61yz-64" value="学科科目" style="rounded=1;whiteSpace=wrap;html=1;fillColor=#dae8fc;strokeColor=#6c8ebf;" vertex="1" parent="1">
          <mxGeometry x="892" y="-230" width="120" height="60" as="geometry" />
        </mxCell>
        <mxCell id="0KoFqksm21B9TkFE61yz-65" value="年级名称" style="ellipse;whiteSpace=wrap;html=1;fillColor=#d5e8d4;strokeColor=#82b366;" vertex="1" parent="1">
          <mxGeometry x="1017" y="-110" width="70" height="40" as="geometry" />
        </mxCell>
        <mxCell id="0KoFqksm21B9TkFE61yz-66" value="年级大小" style="ellipse;whiteSpace=wrap;html=1;fillColor=#d5e8d4;strokeColor=#82b366;" vertex="1" parent="1">
          <mxGeometry x="917" y="-110" width="70" height="40" as="geometry" />
        </mxCell>
        <mxCell id="0KoFqksm21B9TkFE61yz-70" value="n" style="edgeStyle=orthogonalEdgeStyle;rounded=0;orthogonalLoop=1;jettySize=auto;html=1;exitX=0.5;exitY=1;exitDx=0;exitDy=0;entryX=0;entryY=0.5;entryDx=0;entryDy=0;" edge="1" parent="1" source="0KoFqksm21B9TkFE61yz-68" target="EbDNwAQcWXfo5UuwEE8I-41">
          <mxGeometry relative="1" as="geometry" />
        </mxCell>
        <mxCell id="0KoFqksm21B9TkFE61yz-68" value="组成" style="rhombus;whiteSpace=wrap;html=1;fillColor=#fff2cc;strokeColor=#d6b656;" vertex="1" parent="1">
          <mxGeometry x="1087" y="-30" width="80" height="80" as="geometry" />
        </mxCell>
        <mxCell id="0KoFqksm21B9TkFE61yz-81" style="edgeStyle=orthogonalEdgeStyle;rounded=0;orthogonalLoop=1;jettySize=auto;html=1;exitX=0.5;exitY=1;exitDx=0;exitDy=0;entryX=0.5;entryY=0;entryDx=0;entryDy=0;" edge="1" parent="1" source="0KoFqksm21B9TkFE61yz-73" target="0KoFqksm21B9TkFE61yz-74">
          <mxGeometry relative="1" as="geometry" />
        </mxCell>
        <mxCell id="0KoFqksm21B9TkFE61yz-82" style="edgeStyle=orthogonalEdgeStyle;rounded=0;orthogonalLoop=1;jettySize=auto;html=1;exitX=0.5;exitY=1;exitDx=0;exitDy=0;entryX=0.717;entryY=0.05;entryDx=0;entryDy=0;entryPerimeter=0;" edge="1" parent="1" source="0KoFqksm21B9TkFE61yz-73" target="0KoFqksm21B9TkFE61yz-79">
          <mxGeometry relative="1" as="geometry" />
        </mxCell>
        <mxCell id="0KoFqksm21B9TkFE61yz-83" style="edgeStyle=orthogonalEdgeStyle;rounded=0;orthogonalLoop=1;jettySize=auto;html=1;exitX=0.5;exitY=1;exitDx=0;exitDy=0;" edge="1" parent="1" source="0KoFqksm21B9TkFE61yz-73" target="0KoFqksm21B9TkFE61yz-78">
          <mxGeometry relative="1" as="geometry" />
        </mxCell>
        <mxCell id="0KoFqksm21B9TkFE61yz-84" style="edgeStyle=orthogonalEdgeStyle;rounded=0;orthogonalLoop=1;jettySize=auto;html=1;exitX=0.5;exitY=1;exitDx=0;exitDy=0;" edge="1" parent="1" source="0KoFqksm21B9TkFE61yz-73" target="0KoFqksm21B9TkFE61yz-77">
          <mxGeometry relative="1" as="geometry" />
        </mxCell>
        <mxCell id="0KoFqksm21B9TkFE61yz-85" style="edgeStyle=orthogonalEdgeStyle;rounded=0;orthogonalLoop=1;jettySize=auto;html=1;exitX=0.5;exitY=1;exitDx=0;exitDy=0;entryX=0.5;entryY=0;entryDx=0;entryDy=0;" edge="1" parent="1" source="0KoFqksm21B9TkFE61yz-73" target="0KoFqksm21B9TkFE61yz-76">
          <mxGeometry relative="1" as="geometry" />
        </mxCell>
        <mxCell id="0KoFqksm21B9TkFE61yz-86" style="edgeStyle=orthogonalEdgeStyle;rounded=0;orthogonalLoop=1;jettySize=auto;html=1;exitX=0.5;exitY=1;exitDx=0;exitDy=0;entryX=0.723;entryY=0.01;entryDx=0;entryDy=0;entryPerimeter=0;" edge="1" parent="1" source="0KoFqksm21B9TkFE61yz-73" target="0KoFqksm21B9TkFE61yz-75">
          <mxGeometry relative="1" as="geometry" />
        </mxCell>
        <mxCell id="0KoFqksm21B9TkFE61yz-87" style="edgeStyle=orthogonalEdgeStyle;rounded=0;orthogonalLoop=1;jettySize=auto;html=1;exitX=0.5;exitY=1;exitDx=0;exitDy=0;" edge="1" parent="1" source="0KoFqksm21B9TkFE61yz-73" target="0KoFqksm21B9TkFE61yz-80">
          <mxGeometry relative="1" as="geometry" />
        </mxCell>
        <mxCell id="0KoFqksm21B9TkFE61yz-73" value="题目" style="rounded=0;whiteSpace=wrap;html=1;fillColor=#dae8fc;strokeColor=#6c8ebf;" vertex="1" parent="1">
          <mxGeometry x="1680" y="-260" width="120" height="60" as="geometry" />
        </mxCell>
        <mxCell id="0KoFqksm21B9TkFE61yz-74" value="题目类型" style="ellipse;whiteSpace=wrap;html=1;fillColor=#f8cecc;strokeColor=#b85450;" vertex="1" parent="1">
          <mxGeometry x="1465" y="-130" width="75" height="40" as="geometry" />
        </mxCell>
        <mxCell id="0KoFqksm21B9TkFE61yz-75" value="题目内容" style="ellipse;whiteSpace=wrap;html=1;fillColor=#f8cecc;strokeColor=#b85450;" vertex="1" parent="1">
          <mxGeometry x="1930" y="-130" width="75" height="40" as="geometry" />
        </mxCell>
        <mxCell id="0KoFqksm21B9TkFE61yz-76" value="难度" style="ellipse;whiteSpace=wrap;html=1;fillColor=#f8cecc;strokeColor=#b85450;" vertex="1" parent="1">
          <mxGeometry x="1830" y="-130" width="75" height="40" as="geometry" />
        </mxCell>
        <mxCell id="0KoFqksm21B9TkFE61yz-77" value="年级" style="ellipse;whiteSpace=wrap;html=1;fillColor=#f8cecc;strokeColor=#b85450;" vertex="1" parent="1">
          <mxGeometry x="1730" y="-130" width="75" height="40" as="geometry" />
        </mxCell>
        <mxCell id="0KoFqksm21B9TkFE61yz-78" value="分数" style="ellipse;whiteSpace=wrap;html=1;fillColor=#f8cecc;strokeColor=#b85450;" vertex="1" parent="1">
          <mxGeometry x="1645" y="-130" width="75" height="40" as="geometry" />
        </mxCell>
        <mxCell id="0KoFqksm21B9TkFE61yz-79" value="学科id" style="ellipse;whiteSpace=wrap;html=1;fillColor=#f8cecc;strokeColor=#b85450;" vertex="1" parent="1">
          <mxGeometry x="1560" y="-130" width="75" height="40" as="geometry" />
        </mxCell>
        <mxCell id="0KoFqksm21B9TkFE61yz-80" value="题目标签" style="ellipse;whiteSpace=wrap;html=1;fillColor=#f8cecc;strokeColor=#b85450;" vertex="1" parent="1">
          <mxGeometry x="2020" y="-130" width="75" height="40" as="geometry" />
        </mxCell>
        <mxCell id="0KoFqksm21B9TkFE61yz-89" value="拥有" style="rhombus;whiteSpace=wrap;html=1;fillColor=#f8cecc;strokeColor=#b85450;" vertex="1" parent="1">
          <mxGeometry x="1380" y="-170" width="80" height="80" as="geometry" />
        </mxCell>
        <mxCell id="0KoFqksm21B9TkFE61yz-93" value="拥有" style="rhombus;whiteSpace=wrap;html=1;fillColor=#f8cecc;strokeColor=#b85450;" vertex="1" parent="1">
          <mxGeometry x="1270" y="-550" width="80" height="80" as="geometry" />
        </mxCell>
        <mxCell id="0KoFqksm21B9TkFE61yz-96" value="密码" style="ellipse;whiteSpace=wrap;html=1;" vertex="1" parent="1">
          <mxGeometry x="930" y="420" width="110" height="50" as="geometry" />
        </mxCell>
        <mxCell id="0KoFqksm21B9TkFE61yz-97" value="学生" style="rounded=0;whiteSpace=wrap;html=1;fillColor=#dae8fc;strokeColor=#6c8ebf;" vertex="1" parent="1">
          <mxGeometry x="1280" y="310" width="120" height="60" as="geometry" />
        </mxCell>
        <mxCell id="0KoFqksm21B9TkFE61yz-98" value="" style="ellipse;whiteSpace=wrap;html=1;" vertex="1" parent="1">
          <mxGeometry x="2130" y="420" width="110" height="50" as="geometry" />
        </mxCell>
        <mxCell id="0KoFqksm21B9TkFE61yz-99" value="学生id" style="ellipse;whiteSpace=wrap;html=1;" vertex="1" parent="1">
          <mxGeometry x="590" y="420" width="110" height="50" as="geometry" />
        </mxCell>
        <mxCell id="0KoFqksm21B9TkFE61yz-100" value="学生名" style="ellipse;whiteSpace=wrap;html=1;" vertex="1" parent="1">
          <mxGeometry x="750" y="420" width="110" height="50" as="geometry" />
        </mxCell>
        <mxCell id="0KoFqksm21B9TkFE61yz-101" value="" style="ellipse;whiteSpace=wrap;html=1;" vertex="1" parent="1">
          <mxGeometry x="1670" y="420" width="110" height="50" as="geometry" />
        </mxCell>
        <mxCell id="0KoFqksm21B9TkFE61yz-102" value="" style="ellipse;whiteSpace=wrap;html=1;" vertex="1" parent="1">
          <mxGeometry x="1985" y="420" width="110" height="50" as="geometry" />
        </mxCell>
        <mxCell id="0KoFqksm21B9TkFE61yz-103" value="" style="ellipse;whiteSpace=wrap;html=1;" vertex="1" parent="1">
          <mxGeometry x="1830" y="420" width="110" height="50" as="geometry" />
        </mxCell>
        <mxCell id="0KoFqksm21B9TkFE61yz-104" value="生日" style="ellipse;whiteSpace=wrap;html=1;" vertex="1" parent="1">
          <mxGeometry x="1520" y="420" width="110" height="50" as="geometry" />
        </mxCell>
        <mxCell id="0KoFqksm21B9TkFE61yz-105" value="性别" style="ellipse;whiteSpace=wrap;html=1;" vertex="1" parent="1">
          <mxGeometry x="1365" y="420" width="110" height="50" as="geometry" />
        </mxCell>
        <mxCell id="0KoFqksm21B9TkFE61yz-106" value="年龄" style="ellipse;whiteSpace=wrap;html=1;" vertex="1" parent="1">
          <mxGeometry x="1220" y="420" width="110" height="50" as="geometry" />
        </mxCell>
        <mxCell id="0KoFqksm21B9TkFE61yz-107" value="正是名字" style="ellipse;whiteSpace=wrap;html=1;" vertex="1" parent="1">
          <mxGeometry x="1080" y="420" width="110" height="50" as="geometry" />
        </mxCell>
        <mxCell id="0KoFqksm21B9TkFE61yz-109" style="edgeStyle=orthogonalEdgeStyle;rounded=0;orthogonalLoop=1;jettySize=auto;html=1;exitX=0.5;exitY=1;exitDx=0;exitDy=0;" edge="1" parent="1" source="0KoFqksm21B9TkFE61yz-101" target="0KoFqksm21B9TkFE61yz-101">
          <mxGeometry relative="1" as="geometry" />
        </mxCell>
      </root>
    </mxGraphModel>
  </diagram>
</mxfile>
